<svg width="498" height="396" viewBox="0 0 498 396" fill="none" xmlns="http://www.w3.org/2000/svg">
    <rect x="98.5" y="70.5" width="301" height="255" stroke="white" stroke-width="25" />
    <circle cx="412" cy="58" r="40" fill="#5258E4" stroke="white" stroke-width="20" />
    <path
        d="M139.194 286V117.25H225.944C249.361 117.25 265.694 123.5 274.944 136C284.278 148.5 288.944 170.333 288.944 201.5C288.944 232.75 284.278 254.667 274.944 267.25C265.611 279.75 249.278 286 225.944 286H139.194ZM181.694 257.125H214.444C225.361 257.125 233.403 254.125 238.569 248.125C243.819 242.125 246.444 226.583 246.444 201.5C246.444 176.5 243.819 161.042 238.569 155.125C233.403 149.125 225.361 146.125 214.444 146.125H181.694V257.125ZM313.413 286V117.25H355.788V286H313.413Z"
        fill="white" />
    <rect x="5" y="5" width="488" height="386" stroke="black" stroke-width="10" opacity="0" />
</svg>