<svg width="461" height="396" viewBox="0 0 461 396" fill="none" xmlns="http://www.w3.org/2000/svg">
    <rect x="79.5" y="70.5" width="301" height="255" stroke="black" stroke-width="25" />
    <circle cx="393" cy="58" r="40" fill="#5258E4" stroke="black" stroke-width="20" />
    <path
        d="M120.194 286V117.25H206.944C230.361 117.25 246.694 123.5 255.944 136C265.278 148.5 269.944 170.333 269.944 201.5C269.944 232.75 265.278 254.667 255.944 267.25C246.611 279.75 230.278 286 206.944 286H120.194ZM162.694 257.125H195.444C206.361 257.125 214.403 254.125 219.569 248.125C224.819 242.125 227.444 226.583 227.444 201.5C227.444 176.5 224.819 161.042 219.569 155.125C214.403 149.125 206.361 146.125 195.444 146.125H162.694V257.125ZM294.413 286V117.25H336.788V286H294.413Z"
        fill="black" />
    <rect x="5" y="5" width="451" height="386" stroke="black" stroke-width="10" opacity="0" />
</svg>