<svg width="1500" height="576" viewBox="0 0 1500 576" fill="none" xmlns="http://www.w3.org/2000/svg">
    <rect x="169.5" y="83.5" width="1162" height="409" stroke="black" stroke-width="25" />
    <circle cx="1343.5" cy="70.5" r="52.5" fill="#5258E4" stroke="black" stroke-width="20" />
    <path
        d="M401.896 237.758C401.896 248.419 400.024 258.225 396.28 267.177C392.618 276.129 387.532 283.86 381.021 290.37C374.511 296.799 366.78 301.845 357.828 305.507C348.876 309.169 339.151 311 328.653 311H242.96C240.681 311 238.565 310.593 236.612 309.779C234.659 308.965 232.95 307.867 231.485 306.483C230.102 305.019 229.003 303.31 228.189 301.356C227.376 299.403 226.969 297.287 226.969 295.009V151.942C226.969 149.745 227.376 147.67 228.189 145.717C229.003 143.764 230.102 142.055 231.485 140.59C232.95 139.125 234.659 137.986 236.612 137.172C238.565 136.358 240.681 135.951 242.96 135.951H328.653C339.151 135.951 348.876 137.782 357.828 141.444C366.78 145.106 374.511 150.193 381.021 156.703C387.532 163.132 392.618 170.863 396.28 179.896C400.024 188.848 401.896 198.614 401.896 209.193V237.758ZM370.157 209.193C370.157 203.008 369.14 197.353 367.105 192.226C365.152 187.099 362.345 182.745 358.683 179.164C355.021 175.502 350.626 172.694 345.499 170.741C340.453 168.707 334.838 167.689 328.653 167.689H258.707V279.262H328.653C334.838 279.262 340.453 278.285 345.499 276.332C350.626 274.298 355.021 271.49 358.683 267.909C362.345 264.247 365.152 259.893 367.105 254.848C369.14 249.721 370.157 244.024 370.157 237.758V209.193ZM576.944 239.467H476.725V207.484H576.944V239.467ZM591.227 311H476.725C472.33 311 467.529 310.227 462.32 308.681C457.112 307.134 452.27 304.612 447.794 301.112C443.399 297.532 439.697 292.934 436.686 287.318C433.756 281.622 432.291 274.664 432.291 266.444V151.942C432.291 149.745 432.698 147.67 433.512 145.717C434.326 143.764 435.424 142.055 436.808 140.59C438.272 139.125 439.981 137.986 441.935 137.172C443.888 136.358 446.004 135.951 448.282 135.951H591.227V167.689H464.029V266.444C464.029 270.595 465.128 273.769 467.325 275.966C469.522 278.163 472.737 279.262 476.969 279.262H591.227V311ZM789.469 259.486C789.469 265.753 788.655 271.409 787.027 276.454C785.481 281.418 783.406 285.813 780.802 289.638C778.198 293.463 775.146 296.718 771.646 299.403C768.147 302.089 764.526 304.286 760.782 305.995C757.039 307.704 753.214 308.965 749.308 309.779C745.483 310.593 741.861 311 738.443 311H616.007V279.262H738.443C744.547 279.262 749.267 277.471 752.604 273.891C756.021 270.31 757.73 265.508 757.73 259.486C757.73 256.557 757.283 253.871 756.388 251.43C755.493 248.988 754.19 246.872 752.481 245.082C750.854 243.292 748.819 241.908 746.378 240.932C744.018 239.955 741.373 239.467 738.443 239.467H665.445C660.318 239.467 654.785 238.572 648.844 236.781C642.903 234.91 637.369 231.939 632.242 227.87C627.197 223.801 622.965 218.471 619.547 211.879C616.21 205.287 614.542 197.23 614.542 187.709C614.542 178.188 616.21 170.172 619.547 163.661C622.965 157.069 627.197 151.739 632.242 147.67C637.369 143.52 642.903 140.549 648.844 138.759C654.785 136.887 660.318 135.951 665.445 135.951H773.478V167.689H665.445C659.423 167.689 654.703 169.521 651.285 173.183C647.949 176.845 646.28 181.687 646.28 187.709C646.28 193.812 647.949 198.655 651.285 202.235C654.703 205.735 659.423 207.484 665.445 207.484H738.443H738.688C742.105 207.566 745.727 208.054 749.552 208.949C753.377 209.763 757.161 211.065 760.904 212.855C764.729 214.646 768.351 216.924 771.769 219.691C775.187 222.377 778.198 225.632 780.802 229.457C783.487 233.282 785.603 237.676 787.149 242.641C788.696 247.605 789.469 253.22 789.469 259.486ZM847.818 311H816.08V135.951H847.818V311ZM1057.66 295.009C1057.66 297.287 1057.25 299.403 1056.44 301.356C1055.62 303.31 1054.48 305.019 1053.02 306.483C1051.64 307.867 1049.97 308.965 1048.01 309.779C1046.06 310.593 1043.94 311 1041.67 311H927.164C924.234 311 921.061 310.674 917.643 310.023C914.306 309.291 910.969 308.192 907.633 306.728C904.378 305.263 901.244 303.391 898.233 301.112C895.222 298.752 892.537 295.945 890.177 292.689C887.898 289.353 886.067 285.528 884.684 281.215C883.3 276.82 882.608 271.897 882.608 266.444V180.507C882.608 177.577 882.934 174.444 883.585 171.107C884.317 167.689 885.416 164.353 886.881 161.098C888.346 157.761 890.258 154.587 892.618 151.576C894.978 148.565 897.786 145.92 901.041 143.642C904.378 141.282 908.202 139.41 912.516 138.026C916.829 136.643 921.712 135.951 927.164 135.951H1056.19V167.689H927.164C923.014 167.689 919.84 168.788 917.643 170.985C915.445 173.183 914.347 176.438 914.347 180.751V266.444C914.347 270.513 915.445 273.687 917.643 275.966C919.921 278.163 923.095 279.262 927.164 279.262H1025.92V239.467H941.446V207.484H1041.67C1043.94 207.484 1046.06 207.932 1048.01 208.827C1049.97 209.641 1051.64 210.78 1053.02 212.245C1054.48 213.71 1055.62 215.419 1056.44 217.372C1057.25 219.244 1057.66 221.278 1057.66 223.476V295.009ZM1265.67 297.45C1265.67 299.729 1265.22 301.845 1264.32 303.798C1263.51 305.751 1262.37 307.46 1260.9 308.925C1259.52 310.308 1257.85 311.407 1255.9 312.221C1253.95 313.035 1251.87 313.441 1249.67 313.441C1247.72 313.441 1245.73 313.075 1243.69 312.343C1241.74 311.61 1239.99 310.43 1238.44 308.803L1122.48 187.709V311H1090.74V149.501C1090.74 146.246 1091.63 143.316 1093.42 140.712C1095.3 138.026 1097.66 136.033 1100.5 134.73C1103.51 133.51 1106.61 133.225 1109.78 133.876C1112.96 134.446 1115.68 135.91 1117.96 138.271L1233.93 259.242V135.951H1265.67V297.45Z"
        fill="black" />
    <path
        d="M247.552 447H226.605V331.468H247.552V447ZM387.496 438.057C387.496 439.561 387.201 440.958 386.61 442.247C386.073 443.536 385.321 444.664 384.354 445.63C383.441 446.543 382.34 447.269 381.051 447.806C379.762 448.343 378.392 448.611 376.942 448.611C375.653 448.611 374.337 448.37 372.994 447.886C371.705 447.403 370.55 446.624 369.53 445.55L292.992 365.628V447H272.044V340.411C272.044 338.262 272.635 336.329 273.817 334.61C275.052 332.837 276.61 331.521 278.49 330.662C280.477 329.856 282.518 329.668 284.613 330.098C286.708 330.474 288.507 331.441 290.011 332.999L366.549 412.84V331.468H387.496V438.057ZM522.928 413.001C522.928 417.137 522.391 420.87 521.317 424.2C520.296 427.476 518.927 430.376 517.208 432.901C515.489 435.425 513.475 437.574 511.166 439.346C508.856 441.119 506.466 442.569 503.995 443.697C501.524 444.825 499 445.657 496.422 446.194C493.897 446.731 491.507 447 489.251 447H408.443V426.053H489.251C493.28 426.053 496.395 424.871 498.597 422.508C500.853 420.145 501.981 416.976 501.981 413.001C501.981 411.067 501.686 409.295 501.095 407.684C500.504 406.072 499.645 404.676 498.517 403.494C497.442 402.312 496.1 401.399 494.488 400.755C492.931 400.11 491.185 399.788 489.251 399.788H441.073C437.689 399.788 434.037 399.197 430.116 398.016C426.195 396.78 422.542 394.82 419.159 392.134C415.829 389.449 413.036 385.931 410.78 381.58C408.578 377.229 407.477 371.912 407.477 365.628C407.477 359.344 408.578 354.053 410.78 349.756C413.036 345.406 415.829 341.888 419.159 339.202C422.542 336.463 426.195 334.502 430.116 333.321C434.037 332.085 437.689 331.468 441.073 331.468H512.374V352.415H441.073C437.098 352.415 433.983 353.624 431.727 356.041C429.525 358.458 428.424 361.653 428.424 365.628C428.424 369.656 429.525 372.852 431.727 375.215C433.983 377.525 437.098 378.68 441.073 378.68H489.251H489.413C491.668 378.733 494.059 379.056 496.583 379.646C499.107 380.184 501.605 381.043 504.076 382.225C506.6 383.406 508.99 384.91 511.246 386.736C513.502 388.509 515.489 390.657 517.208 393.182C518.98 395.706 520.377 398.606 521.397 401.883C522.418 405.159 522.928 408.865 522.928 413.001ZM643.456 352.415H597.291V447H576.344V352.415H530.099V331.468H643.456V352.415ZM768.253 447H747.306V418.641H673.668V447H652.721V389.234C652.721 380.801 654.171 373.04 657.071 365.95C659.972 358.86 664 352.764 669.156 347.662C674.312 342.559 680.409 338.584 687.445 335.738C694.481 332.891 702.162 331.468 710.487 331.468H757.699C759.149 331.468 760.519 331.736 761.808 332.273C763.097 332.811 764.225 333.562 765.191 334.529C766.158 335.496 766.91 336.624 767.447 337.913C767.984 339.202 768.253 340.572 768.253 342.022V447ZM673.668 397.693H747.306V352.415H710.487C709.842 352.415 708.473 352.522 706.378 352.737C704.337 352.898 701.947 353.355 699.208 354.107C696.522 354.859 693.675 356.014 690.667 357.571C687.66 359.129 684.894 361.277 682.369 364.017C679.845 366.756 677.75 370.193 676.085 374.329C674.474 378.411 673.668 383.379 673.668 389.234V397.693ZM908.116 438.057C908.116 439.561 907.821 440.958 907.23 442.247C906.693 443.536 905.941 444.664 904.974 445.63C904.061 446.543 902.96 447.269 901.671 447.806C900.382 448.343 899.012 448.611 897.562 448.611C896.273 448.611 894.957 448.37 893.614 447.886C892.325 447.403 891.17 446.624 890.15 445.55L813.612 365.628V447H792.665V340.411C792.665 338.262 793.255 336.329 794.437 334.61C795.672 332.837 797.23 331.521 799.11 330.662C801.097 329.856 803.138 329.668 805.233 330.098C807.328 330.474 809.127 331.441 810.631 332.999L887.169 412.84V331.468H908.116V438.057ZM1036.94 352.415H990.777V447H969.83V352.415H923.585V331.468H1036.94V352.415ZM1158.52 447H1062.96C1061.46 447 1060.06 446.731 1058.78 446.194C1057.49 445.657 1056.36 444.932 1055.39 444.019C1054.48 443.052 1053.75 441.924 1053.22 440.635C1052.68 439.346 1052.41 437.95 1052.41 436.446V331.468H1073.36V426.053H1158.52V447ZM1272.03 370.14C1272.03 374.92 1271.42 379.19 1270.18 382.95C1269 386.709 1267.42 390.04 1265.43 392.94C1263.44 395.787 1261.1 398.23 1258.42 400.271C1255.79 402.312 1253.05 404.004 1250.2 405.347C1247.35 406.636 1244.45 407.576 1241.5 408.167C1238.6 408.758 1235.86 409.053 1233.28 409.053H1224.82V447H1203.71V409.053H1195.34C1192.76 409.053 1189.99 408.758 1187.04 408.167C1184.14 407.576 1181.24 406.636 1178.34 405.347C1175.49 404.004 1172.75 402.312 1170.12 400.271C1167.49 398.23 1165.15 395.787 1163.11 392.94C1161.12 390.04 1159.51 386.709 1158.27 382.95C1157.09 379.136 1156.5 374.866 1156.5 370.14V331.468H1177.45V370.14C1177.45 372.879 1177.88 375.35 1178.74 377.552C1179.6 379.7 1180.81 381.553 1182.36 383.111C1183.92 384.668 1185.8 385.877 1188 386.736C1190.26 387.542 1192.76 387.945 1195.5 387.945H1233.28C1235.27 387.623 1237.31 387.22 1239.41 386.736C1241.5 386.199 1243.41 385.313 1245.13 384.078C1246.84 382.842 1248.27 381.124 1249.4 378.921C1250.52 376.719 1251.09 373.792 1251.09 370.14V331.468H1272.03V370.14Z"
        fill="black" />
</svg>