<svg width="1500" height="576" viewBox="0 0 1500 576" fill="none" xmlns="http://www.w3.org/2000/svg">
    <rect x="168.5" y="83.5" width="1162" height="409" stroke="white" stroke-width="25" />
    <circle cx="1342.5" cy="70.5" r="52.5" fill="#5258E4" stroke="white" stroke-width="20" />
    <path
        d="M400.896 237.758C400.896 248.419 399.024 258.225 395.28 267.177C391.618 276.129 386.532 283.86 380.021 290.37C373.511 296.799 365.78 301.845 356.828 305.507C347.876 309.169 338.151 311 327.653 311H241.96C239.681 311 237.565 310.593 235.612 309.779C233.659 308.965 231.95 307.867 230.485 306.483C229.102 305.019 228.003 303.31 227.189 301.356C226.376 299.403 225.969 297.287 225.969 295.009V151.942C225.969 149.745 226.376 147.67 227.189 145.717C228.003 143.764 229.102 142.055 230.485 140.59C231.95 139.125 233.659 137.986 235.612 137.172C237.565 136.358 239.681 135.951 241.96 135.951H327.653C338.151 135.951 347.876 137.782 356.828 141.444C365.78 145.106 373.511 150.193 380.021 156.703C386.532 163.132 391.618 170.863 395.28 179.896C399.024 188.848 400.896 198.614 400.896 209.193V237.758ZM369.157 209.193C369.157 203.008 368.14 197.353 366.105 192.226C364.152 187.099 361.345 182.745 357.683 179.164C354.021 175.502 349.626 172.694 344.499 170.741C339.453 168.707 333.838 167.689 327.653 167.689H257.707V279.262H327.653C333.838 279.262 339.453 278.285 344.499 276.332C349.626 274.298 354.021 271.49 357.683 267.909C361.345 264.247 364.152 259.893 366.105 254.848C368.14 249.721 369.157 244.024 369.157 237.758V209.193ZM575.944 239.467H475.725V207.484H575.944V239.467ZM590.227 311H475.725C471.33 311 466.529 310.227 461.32 308.681C456.112 307.134 451.27 304.612 446.794 301.112C442.399 297.532 438.697 292.934 435.686 287.318C432.756 281.622 431.291 274.664 431.291 266.444V151.942C431.291 149.745 431.698 147.67 432.512 145.717C433.326 143.764 434.424 142.055 435.808 140.59C437.272 139.125 438.981 137.986 440.935 137.172C442.888 136.358 445.004 135.951 447.282 135.951H590.227V167.689H463.029V266.444C463.029 270.595 464.128 273.769 466.325 275.966C468.522 278.163 471.737 279.262 475.969 279.262H590.227V311ZM788.469 259.486C788.469 265.753 787.655 271.409 786.027 276.454C784.481 281.418 782.406 285.813 779.802 289.638C777.198 293.463 774.146 296.718 770.646 299.403C767.147 302.089 763.526 304.286 759.782 305.995C756.039 307.704 752.214 308.965 748.308 309.779C744.483 310.593 740.861 311 737.443 311H615.007V279.262H737.443C743.547 279.262 748.267 277.471 751.604 273.891C755.021 270.31 756.73 265.508 756.73 259.486C756.73 256.557 756.283 253.871 755.388 251.43C754.493 248.988 753.19 246.872 751.481 245.082C749.854 243.292 747.819 241.908 745.378 240.932C743.018 239.955 740.373 239.467 737.443 239.467H664.445C659.318 239.467 653.785 238.572 647.844 236.781C641.903 234.91 636.369 231.939 631.242 227.87C626.197 223.801 621.965 218.471 618.547 211.879C615.21 205.287 613.542 197.23 613.542 187.709C613.542 178.188 615.21 170.172 618.547 163.661C621.965 157.069 626.197 151.739 631.242 147.67C636.369 143.52 641.903 140.549 647.844 138.759C653.785 136.887 659.318 135.951 664.445 135.951H772.478V167.689H664.445C658.423 167.689 653.703 169.521 650.285 173.183C646.949 176.845 645.28 181.687 645.28 187.709C645.28 193.812 646.949 198.655 650.285 202.235C653.703 205.735 658.423 207.484 664.445 207.484H737.443H737.688C741.105 207.566 744.727 208.054 748.552 208.949C752.377 209.763 756.161 211.065 759.904 212.855C763.729 214.646 767.351 216.924 770.769 219.691C774.187 222.377 777.198 225.632 779.802 229.457C782.487 233.282 784.603 237.676 786.149 242.641C787.696 247.605 788.469 253.22 788.469 259.486ZM846.818 311H815.08V135.951H846.818V311ZM1056.66 295.009C1056.66 297.287 1056.25 299.403 1055.44 301.356C1054.62 303.31 1053.48 305.019 1052.02 306.483C1050.64 307.867 1048.97 308.965 1047.01 309.779C1045.06 310.593 1042.94 311 1040.67 311H926.164C923.234 311 920.061 310.674 916.643 310.023C913.306 309.291 909.969 308.192 906.633 306.728C903.378 305.263 900.244 303.391 897.233 301.112C894.222 298.752 891.537 295.945 889.177 292.689C886.898 289.353 885.067 285.528 883.684 281.215C882.3 276.82 881.608 271.897 881.608 266.444V180.507C881.608 177.577 881.934 174.444 882.585 171.107C883.317 167.689 884.416 164.353 885.881 161.098C887.346 157.761 889.258 154.587 891.618 151.576C893.978 148.565 896.786 145.92 900.041 143.642C903.378 141.282 907.202 139.41 911.516 138.026C915.829 136.643 920.712 135.951 926.164 135.951H1055.19V167.689H926.164C922.014 167.689 918.84 168.788 916.643 170.985C914.445 173.183 913.347 176.438 913.347 180.751V266.444C913.347 270.513 914.445 273.687 916.643 275.966C918.921 278.163 922.095 279.262 926.164 279.262H1024.92V239.467H940.446V207.484H1040.67C1042.94 207.484 1045.06 207.932 1047.01 208.827C1048.97 209.641 1050.64 210.78 1052.02 212.245C1053.48 213.71 1054.62 215.419 1055.44 217.372C1056.25 219.244 1056.66 221.278 1056.66 223.476V295.009ZM1264.67 297.45C1264.67 299.729 1264.22 301.845 1263.32 303.798C1262.51 305.751 1261.37 307.46 1259.9 308.925C1258.52 310.308 1256.85 311.407 1254.9 312.221C1252.95 313.035 1250.87 313.441 1248.67 313.441C1246.72 313.441 1244.73 313.075 1242.69 312.343C1240.74 311.61 1238.99 310.43 1237.44 308.803L1121.48 187.709V311H1089.74V149.501C1089.74 146.246 1090.63 143.316 1092.42 140.712C1094.3 138.026 1096.66 136.033 1099.5 134.73C1102.51 133.51 1105.61 133.225 1108.78 133.876C1111.96 134.446 1114.68 135.91 1116.96 138.271L1232.93 259.242V135.951H1264.67V297.45Z"
        fill="white" />
    <path
        d="M246.552 447H225.605V331.468H246.552V447ZM386.496 438.057C386.496 439.561 386.201 440.958 385.61 442.247C385.073 443.536 384.321 444.664 383.354 445.63C382.441 446.543 381.34 447.269 380.051 447.806C378.762 448.343 377.392 448.611 375.942 448.611C374.653 448.611 373.337 448.37 371.994 447.886C370.705 447.403 369.55 446.624 368.53 445.55L291.992 365.628V447H271.044V340.411C271.044 338.262 271.635 336.329 272.817 334.61C274.052 332.837 275.61 331.521 277.49 330.662C279.477 329.856 281.518 329.668 283.613 330.098C285.708 330.474 287.507 331.441 289.011 332.999L365.549 412.84V331.468H386.496V438.057ZM521.928 413.001C521.928 417.137 521.391 420.87 520.317 424.2C519.296 427.476 517.927 430.376 516.208 432.901C514.489 435.425 512.475 437.574 510.166 439.346C507.856 441.119 505.466 442.569 502.995 443.697C500.524 444.825 498 445.657 495.422 446.194C492.897 446.731 490.507 447 488.251 447H407.443V426.053H488.251C492.28 426.053 495.395 424.871 497.597 422.508C499.853 420.145 500.981 416.976 500.981 413.001C500.981 411.067 500.686 409.295 500.095 407.684C499.504 406.072 498.645 404.676 497.517 403.494C496.442 402.312 495.1 401.399 493.488 400.755C491.931 400.11 490.185 399.788 488.251 399.788H440.073C436.689 399.788 433.037 399.197 429.116 398.016C425.195 396.78 421.542 394.82 418.159 392.134C414.829 389.449 412.036 385.931 409.78 381.58C407.578 377.229 406.477 371.912 406.477 365.628C406.477 359.344 407.578 354.053 409.78 349.756C412.036 345.406 414.829 341.888 418.159 339.202C421.542 336.463 425.195 334.502 429.116 333.321C433.037 332.085 436.689 331.468 440.073 331.468H511.374V352.415H440.073C436.098 352.415 432.983 353.624 430.727 356.041C428.525 358.458 427.424 361.653 427.424 365.628C427.424 369.656 428.525 372.852 430.727 375.215C432.983 377.525 436.098 378.68 440.073 378.68H488.251H488.413C490.668 378.733 493.059 379.056 495.583 379.646C498.107 380.184 500.605 381.043 503.076 382.225C505.6 383.406 507.99 384.91 510.246 386.736C512.502 388.509 514.489 390.657 516.208 393.182C517.98 395.706 519.377 398.606 520.397 401.883C521.418 405.159 521.928 408.865 521.928 413.001ZM642.456 352.415H596.291V447H575.344V352.415H529.099V331.468H642.456V352.415ZM767.253 447H746.306V418.641H672.668V447H651.721V389.234C651.721 380.801 653.171 373.04 656.071 365.95C658.972 358.86 663 352.764 668.156 347.662C673.312 342.559 679.409 338.584 686.445 335.738C693.481 332.891 701.162 331.468 709.487 331.468H756.699C758.149 331.468 759.519 331.736 760.808 332.273C762.097 332.811 763.225 333.562 764.191 334.529C765.158 335.496 765.91 336.624 766.447 337.913C766.984 339.202 767.253 340.572 767.253 342.022V447ZM672.668 397.693H746.306V352.415H709.487C708.842 352.415 707.473 352.522 705.378 352.737C703.337 352.898 700.947 353.355 698.208 354.107C695.522 354.859 692.675 356.014 689.667 357.571C686.66 359.129 683.894 361.277 681.369 364.017C678.845 366.756 676.75 370.193 675.085 374.329C673.474 378.411 672.668 383.379 672.668 389.234V397.693ZM907.116 438.057C907.116 439.561 906.821 440.958 906.23 442.247C905.693 443.536 904.941 444.664 903.974 445.63C903.061 446.543 901.96 447.269 900.671 447.806C899.382 448.343 898.012 448.611 896.562 448.611C895.273 448.611 893.957 448.37 892.614 447.886C891.325 447.403 890.17 446.624 889.15 445.55L812.612 365.628V447H791.665V340.411C791.665 338.262 792.255 336.329 793.437 334.61C794.672 332.837 796.23 331.521 798.11 330.662C800.097 329.856 802.138 329.668 804.233 330.098C806.328 330.474 808.127 331.441 809.631 332.999L886.169 412.84V331.468H907.116V438.057ZM1035.94 352.415H989.777V447H968.83V352.415H922.585V331.468H1035.94V352.415ZM1157.52 447H1061.96C1060.46 447 1059.06 446.731 1057.78 446.194C1056.49 445.657 1055.36 444.932 1054.39 444.019C1053.48 443.052 1052.75 441.924 1052.22 440.635C1051.68 439.346 1051.41 437.95 1051.41 436.446V331.468H1072.36V426.053H1157.52V447ZM1271.03 370.14C1271.03 374.92 1270.42 379.19 1269.18 382.95C1268 386.709 1266.42 390.04 1264.43 392.94C1262.44 395.787 1260.1 398.23 1257.42 400.271C1254.79 402.312 1252.05 404.004 1249.2 405.347C1246.35 406.636 1243.45 407.576 1240.5 408.167C1237.6 408.758 1234.86 409.053 1232.28 409.053H1223.82V447H1202.71V409.053H1194.34C1191.76 409.053 1188.99 408.758 1186.04 408.167C1183.14 407.576 1180.24 406.636 1177.34 405.347C1174.49 404.004 1171.75 402.312 1169.12 400.271C1166.49 398.23 1164.15 395.787 1162.11 392.94C1160.12 390.04 1158.51 386.709 1157.27 382.95C1156.09 379.136 1155.5 374.866 1155.5 370.14V331.468H1176.45V370.14C1176.45 372.879 1176.88 375.35 1177.74 377.552C1178.6 379.7 1179.81 381.553 1181.36 383.111C1182.92 384.668 1184.8 385.877 1187 386.736C1189.26 387.542 1191.76 387.945 1194.5 387.945H1232.28C1234.27 387.623 1236.31 387.22 1238.41 386.736C1240.5 386.199 1242.41 385.313 1244.13 384.078C1245.84 382.842 1247.27 381.124 1248.4 378.921C1249.52 376.719 1250.09 373.792 1250.09 370.14V331.468H1271.03V370.14Z"
        fill="white" />
    <rect x="5" y="5" width="1490" height="566" stroke="black" stroke-width="10" opacity="0" />
</svg>